<svg width="503" height="317" viewBox="0 0 503 317" fill="none" xmlns="http://www.w3.org/2000/svg">
<g id="arm">
<g id="bottom">
<path id="&#60;Path&#62;" d="M419.195 168.208C430.937 155.93 430.501 135.609 418.23 123.908L387.269 94.5533L378.837 86.5475L371.916 79.9108L365.937 74.2992L358.952 67.6619L356.749 65.6088L350.897 60.0661L319.071 93.2774L323.274 98.533L326.098 102.014L332.185 109.591L337.33 116.075L343.416 123.651L352.201 134.573L377.677 166.312C388.343 179.622 407.451 180.554 419.195 168.208Z" fill="#1060A6"/>
<path id="&#60;Path&#62;_2" d="M323.274 98.533C339.812 95.9857 353.088 82.7743 356.749 65.6088L350.897 60.0661L319.071 93.2773L323.274 98.533Z" fill="#003C70"/>
<path id="&#60;Path&#62;_3" d="M500.361 200.898L501.192 115.848L467.099 121L447.573 123.924C442.294 124.685 438.373 129.455 438.317 135.143L437.875 180.445C437.82 186.065 441.647 190.911 446.909 191.843L466.375 195.148L500.361 200.898Z" fill="#1060A6"/>
<path id="&#60;Path&#62;_4" d="M466.375 195.148C472.957 184.512 476.891 171.819 477.025 158.141C477.159 144.462 473.473 131.694 467.099 121L447.573 123.924C442.294 124.685 438.373 129.455 438.317 135.143L437.875 180.445C437.82 186.065 441.647 190.911 446.909 191.843L466.375 195.148Z" fill="#0B528F"/>
<path id="&#60;Path&#62;_5" d="M419.195 168.208C430.937 155.929 430.501 135.609 418.23 123.908L387.27 94.5532C371 102.114 358.22 116.617 352.201 134.573L377.677 166.312C388.344 179.622 407.451 180.554 419.195 168.208Z" fill="#0B528F"/>
<g id="&#60;Group&#62;">
<path id="&#60;Path&#62;_6" d="M412.384 215.208C442.232 215.499 466.68 189.869 466.991 158.043C467.302 126.216 443.359 100.18 413.511 99.8887C383.664 99.597 359.216 125.16 358.905 156.986C358.594 188.812 382.537 214.916 412.384 215.208Z" fill="#1060A6"/>
<path id="&#60;Path&#62;_7" d="M412.636 189.408C429.148 189.57 442.686 175.48 442.859 157.807C443.031 140.201 429.771 125.782 413.26 125.62C396.748 125.459 383.209 139.616 383.037 157.222C382.864 174.896 396.125 189.247 412.636 189.408Z" fill="#0B528F"/>
<path id="&#60;Path&#62;_8" opacity="0.1" d="M438.037 163.787C438.209 146.181 424.949 131.762 408.438 131.601C400.563 131.524 393.419 134.637 388.033 139.866C393.453 131.183 402.781 125.518 413.26 125.62C429.771 125.782 443.031 140.201 442.859 157.807C442.768 167.084 438.939 175.444 432.977 181.21C436.137 176.229 437.974 170.22 438.037 163.787Z" fill="black"/>
<g id="&#60;Group&#62;_2">
<path id="&#60;Path&#62;_9" d="M415.073 200.064C415.087 198.575 413.956 197.345 412.559 197.331C391.983 197.13 375.392 179.157 375.607 157.149C375.621 155.66 374.49 154.43 373.093 154.416C371.696 154.402 370.541 155.61 370.526 157.1C370.282 182.087 389.136 202.52 412.506 202.748C413.903 202.762 415.058 201.554 415.073 200.064Z" fill="white"/>
</g>
<path id="&#60;Path&#62;_10" d="M423.105 203.461C425.328 203.483 427.189 201.537 427.212 199.167C427.236 196.729 425.413 194.748 423.191 194.726C420.905 194.704 419.044 196.649 419.02 199.087C418.997 201.457 420.819 203.439 423.105 203.461Z" fill="white"/>
</g>
<path id="&#60;Path&#62;_11" d="M332.185 109.591L365.937 74.2992L358.952 67.6619L326.099 102.014L332.185 109.591Z" fill="#0B528F"/>
<path id="&#60;Path&#62;_12" d="M343.416 123.651L378.837 86.5473L371.916 79.9107L337.33 116.075L343.416 123.651Z" fill="#0B528F"/>
</g>
<g id="middle">
<g id="&#60;Group&#62;_3">
<path id="&#60;Path&#62;_13" d="M362.566 68.8038C359.107 52.1258 342.525 42.7192 326.356 48.2758L285.692 62.3769L274.609 66.2122L265.513 69.362L257.652 72.0793L248.521 75.2869L245.602 76.274L237.92 78.9425L247.15 124.056L253.638 122.721L258.048 121.856L267.494 119.955L275.488 118.354L284.934 116.453L298.557 113.702L338.116 105.76C354.75 102.477 365.971 85.4487 362.566 68.8038Z" fill="#1060A6"/>
<path id="&#60;Path&#62;_14" d="M253.638 122.721C260.7 106.394 257.389 87.8988 245.602 76.274L237.92 78.9425L247.15 124.056L253.638 122.721Z" fill="#0B528F"/>
<path id="&#60;Path&#62;_15" d="M362.566 68.8038C359.107 52.1257 342.525 42.7191 326.355 48.2757L285.692 62.3769C282.81 80.8783 287.433 99.5441 298.557 113.702L338.116 105.759C354.75 102.477 365.971 85.4486 362.566 68.8038Z" fill="#0B528F"/>
</g>
<g id="&#60;Group&#62;_4">
<path id="&#60;Path&#62;_16" d="M312.769 110.599C329.429 120.849 351.823 114.749 362.752 96.9843C373.681 79.2197 369.029 56.4809 352.369 46.2313C335.709 35.9817 313.369 42.1149 302.44 59.8796C291.511 77.6442 296.109 100.35 312.769 110.599Z" fill="#1060A6"/>
<path id="&#60;Path&#62;_17" d="M321.604 96.2377C330.854 101.928 343.251 98.5034 349.283 88.6982C355.351 78.8353 352.783 66.2835 343.534 60.593C334.338 54.9358 321.977 58.3029 315.909 68.1658C309.877 77.9709 312.409 90.5805 321.604 96.2377Z" fill="#0B528F"/>
<path id="&#60;Path&#62;_18" opacity="0.1" d="M344.598 88.6781C350.666 78.8152 348.098 66.2634 338.848 60.5729C336.576 59.1752 334.039 58.3299 331.56 57.9971C335.667 57.5025 339.855 58.3301 343.534 60.593C352.783 66.2835 355.351 78.8353 349.283 88.6982C344.741 96.0809 336.619 99.8297 328.983 98.7891C335.081 98.0883 340.979 94.5612 344.598 88.6781Z" fill="black"/>
<g id="&#60;Group&#62;_5">
<path id="&#60;Path&#62;_19" d="M319.608 103.119C320.176 102.196 319.969 100.956 319.05 100.39C307.69 93.4021 304.508 77.8488 311.96 65.7365C312.563 64.756 312.267 63.5403 311.402 63.0079C310.482 62.4421 309.318 62.7593 308.715 63.7398C300.092 77.7555 303.776 95.7646 316.921 103.851C317.84 104.417 319.005 104.1 319.608 103.119Z" fill="white"/>
</g>
<path id="&#60;Path&#62;_20" d="M322.112 106.806C323.085 107.405 324.339 107.064 324.978 106.025C325.581 105.045 325.321 103.771 324.347 103.172C323.428 102.607 322.174 102.948 321.57 103.929C320.932 104.967 321.192 106.24 322.112 106.806Z" fill="white"/>
</g>
<path id="&#60;Path&#62;_21" d="M248.521 75.2869L304.322 57.0622L296.209 54.615L277.697 48.9509L255.074 58.09L250.335 70.5196L248.521 75.2869Z" fill="#1060A6"/>
<path id="&#60;Path&#62;_22" d="M248.521 75.2869L304.322 57.0623L296.209 54.6151L273.594 62.4077L264.462 65.6152L256.637 68.2748L250.335 70.5196L248.521 75.2869Z" fill="#0B528F"/>
</g>
<g id="front">
<g id="Group 3">
<g id="&#60;Group&#62;_6">
<path id="&#60;Path&#62;_23" d="M178.118 131.498L134.8 170.971L154.938 187.606L198.256 148.133L178.118 131.498Z" fill="#C6C6C6"/>
<path id="&#60;Path&#62;_24" d="M143.958 178.536L187.275 139.062L182.154 134.832L138.836 174.305L143.958 178.536Z" fill="#D8D8D8"/>
</g>
<g id="&#60;Group&#62;_7">
<path id="&#60;Path&#62;_25" d="M145.537 198.359L159.074 252.226L106.429 293.714L100.007 284.863L128.139 252.743L106.562 207.863L145.537 198.359Z" fill="#A6A6A6"/>
<g id="&#60;Group&#62;_8">
<path id="&#60;Path&#62;_26" d="M131.302 263.433C124.054 257.446 123.336 247.921 129.648 242.169C135.961 236.417 146.96 236.572 154.208 242.56C161.5 248.583 162.218 258.107 155.906 263.86C149.593 269.612 138.593 269.456 131.302 263.433Z" fill="#DADADA"/>
<path id="&#60;Path&#62;_27" d="M134.591 260.436C129.426 256.17 128.926 249.387 133.424 245.288C137.922 241.189 145.755 241.29 150.92 245.556C156.128 249.859 156.628 256.641 152.13 260.74C147.632 264.839 139.799 264.739 134.591 260.436Z" fill="#B0B2B3"/>
<path id="&#60;Path&#62;_28" d="M138.144 257.199C138.288 257.318 138.433 257.438 138.578 257.557C139.006 257.845 139.24 258.236 139.192 258.656L139.057 260.514L142.816 261.386L143.493 259.713C143.665 259.33 144.049 259.056 144.531 258.994C144.877 258.93 145.221 258.842 145.564 258.731C146.002 258.634 146.533 258.678 146.961 258.966L148.756 260.12L151.251 257.847L149.834 256.348C149.481 255.991 149.366 255.568 149.495 255.149C149.606 254.847 149.69 254.544 149.747 254.241C149.794 253.82 150.091 253.475 150.524 253.307L152.417 252.637L151.19 249.457L149.096 249.631C148.614 249.693 148.116 249.544 147.763 249.187C147.643 249.045 147.511 248.914 147.367 248.794C147.222 248.675 147.079 248.579 146.938 248.506C146.51 248.218 146.314 247.793 146.362 247.373L146.46 245.549L142.738 244.642L142.061 246.316C141.889 246.699 141.505 246.973 141.023 247.035C140.677 247.099 140.318 247.174 139.947 247.262C139.514 247.43 139.021 247.351 138.593 247.063L136.798 245.908L134.303 248.182L135.72 249.68C136.073 250.038 136.15 250.495 136.016 250.844C135.934 251.17 135.864 251.485 135.807 251.788C135.759 252.208 135.463 252.554 135.03 252.722L133.137 253.391L134.326 256.606L136.458 256.397C136.94 256.335 137.4 256.519 137.753 256.876C137.869 256.972 137.999 257.079 138.144 257.199Z" fill="#E0E0E0"/>
</g>
<path id="&#60;Path&#62;_29" d="M121.797 178.748L59.1221 169.66L13.9424 217.314L24.4466 222.445L60.0438 196.492L112.768 212.99L121.797 178.748Z" fill="#A6A6A6"/>
<path id="&#60;Path&#62;_30" d="M143.461 205.378L168.333 182.714L139.776 159.123L114.904 181.788L143.461 205.378Z" fill="#C6C6C6"/>
<path id="&#60;Path&#62;_31" d="M146.156 164.394L121.284 187.058L125.71 190.715L150.582 168.05L146.156 164.394Z" fill="#D8D8D8"/>
<g id="&#60;Group&#62;_9">
<path id="&#60;Path&#62;_32" d="M105.564 213.146C115.763 221.571 131.191 221.838 140.074 213.744C148.956 205.649 147.892 192.293 137.693 183.868C127.494 175.442 112.066 175.175 103.183 183.27C94.3002 191.364 95.3645 204.72 105.564 213.146Z" fill="#DADADA"/>
<path id="&#60;Path&#62;_33" d="M109.797 209.288C117.045 215.275 128.088 215.467 134.401 209.714C140.713 203.962 139.951 194.402 132.703 188.415C125.456 182.427 114.412 182.236 108.1 187.988C101.787 193.74 102.549 203.301 109.797 209.288Z" fill="#B0B2B3"/>
<path id="&#60;Path&#62;_34" d="M115.165 204.397C114.962 204.229 114.772 204.051 114.595 203.86C114.112 203.396 113.402 203.138 112.72 203.231L109.825 203.532L108.086 199.009L110.768 198.073C111.401 197.873 111.768 197.388 111.842 196.793C111.917 196.373 112.031 195.942 112.185 195.5C112.341 194.906 112.209 194.272 111.769 193.843L109.739 191.772L113.292 188.534L115.776 190.192C116.329 190.517 117.028 190.635 117.704 190.471C118.205 190.316 118.695 190.196 119.175 190.11C119.857 190.017 120.435 189.641 120.634 189.083L121.58 186.712L126.835 188.032L126.63 190.556C126.556 191.151 126.888 191.753 127.446 192.149C127.674 192.294 127.889 192.449 128.092 192.617C128.294 192.784 128.484 192.963 128.662 193.153C129.145 193.618 129.811 193.84 130.536 193.782L133.431 193.481L135.208 197.97L132.526 198.906C131.893 199.106 131.445 199.589 131.371 200.185C131.325 200.629 131.225 201.071 131.071 201.513C130.872 202.072 131.042 202.671 131.487 203.17L133.517 205.241L129.964 208.479L127.48 206.821C126.922 206.426 126.185 206.343 125.553 206.542C125.051 206.697 124.546 206.806 124.038 206.867C123.356 206.961 122.859 207.338 122.66 207.896L121.714 210.267L116.422 208.981L116.626 206.458C116.657 205.827 116.369 205.26 115.81 204.864C115.582 204.72 115.367 204.564 115.165 204.397Z" fill="#E0E0E0"/>
</g>
<g id="&#60;Group&#62;_10">
<path id="&#60;Path&#62;_35" d="M47.5824 194.275C54.8303 200.262 65.83 200.418 72.1425 194.666C78.455 188.913 77.7366 179.389 70.4887 173.402C63.1974 167.379 52.1976 167.223 45.8852 172.975C39.5727 178.728 40.2911 188.252 47.5824 194.275Z" fill="#DADADA"/>
<path id="&#60;Path&#62;_36" d="M50.8709 191.279C56.0356 195.545 63.8685 195.646 68.3666 191.547C72.8648 187.448 72.3648 180.665 67.2001 176.398C61.9921 172.096 54.1591 171.996 49.661 176.095C45.1629 180.193 45.6628 186.976 50.8709 191.279Z" fill="#B0B2B3"/>
<path id="&#60;Path&#62;_37" d="M54.424 188.041C54.2794 187.921 54.1347 187.802 53.99 187.682C53.6372 187.325 53.1766 187.142 52.695 187.203L50.5628 187.412L49.3742 184.198L51.267 183.528C51.6995 183.36 51.9963 183.015 52.0439 182.594C52.1008 182.291 52.1848 181.988 52.2959 181.686C52.3869 181.301 52.3099 180.844 51.9571 180.487L50.5403 178.988L53.035 176.715L54.8298 177.869C55.2582 178.157 55.751 178.236 56.227 178.104C56.5696 177.993 56.914 177.905 57.2602 177.841C57.7418 177.779 58.1254 177.505 58.2976 177.122L58.9752 175.449L62.6964 176.355L62.5984 178.179C62.5508 178.599 62.7468 179.024 63.1752 179.312C63.3451 179.409 63.5024 179.517 63.647 179.636C63.7917 179.756 63.9093 179.875 63.9998 179.993C64.3526 180.35 64.851 180.499 65.3326 180.438L67.427 180.263L68.6535 183.444L66.7607 184.113C66.3281 184.281 66.0313 184.627 65.9837 185.047C65.9268 185.35 65.8573 185.665 65.7752 185.991C65.603 186.374 65.7178 186.797 66.0706 187.154L67.4874 188.653L64.9927 190.927L63.1978 189.772C62.7694 189.484 62.2388 189.44 61.844 189.573C61.4726 189.66 61.1137 189.736 60.7674 189.8C60.2858 189.862 59.9023 190.136 59.7301 190.519L59.0525 192.192L55.2935 191.32L55.4293 189.462C55.4769 189.042 55.243 188.652 54.8146 188.363C54.6989 188.268 54.5687 188.16 54.424 188.041Z" fill="#E0E0E0"/>
</g>
</g>
<path id="&#60;Path&#62;_38" d="M31.9224 225.499L43.2851 215.145L35.4363 208.661L24.0735 219.015L31.9224 225.499Z" fill="#A6A6A6"/>
<path id="&#60;Path&#62;_39" d="M102.423 285.677L113.472 275.609L104.229 267.973L93.18 278.041L102.423 285.677Z" fill="#A6A6A6"/>
</g>
<path id="&#60;Path&#62;_40" d="M177.031 113.682L152.097 142.137L152.285 136.405L152.74 123.37L164.107 112.358L173.426 113.359L177.031 113.682Z" fill="#1060A6"/>
<path id="&#60;Path&#62;_41" d="M177.032 113.682L152.097 142.137L152.285 136.406L162.737 125.04L166.959 120.455L170.53 116.494L173.426 113.359L177.032 113.682Z" fill="#0B528F"/>
<path id="&#60;Path&#62;_42" d="M150.61 152.551L173.339 172.468C175.784 174.611 179.342 174.893 181.606 173.07L212.857 148.06L228.506 135.577L188.227 100.281L175.358 115.202L149.622 145.043C147.742 147.202 148.212 150.45 150.61 152.551Z" fill="#1060A6"/>
<g id="&#60;Group&#62;_11">
<path id="&#60;Path&#62;_43" d="M188.542 136.979C195.639 143.198 204.232 146.922 212.857 148.061L228.506 135.577L188.227 100.281L175.358 115.202C176.996 123.055 181.445 130.761 188.542 136.979Z" fill="#0B528F"/>
<path id="&#60;Path&#62;_44" d="M199.876 126.088C206.733 132.096 216.077 133.865 223.615 131.291L193.118 104.567C190.663 111.595 193.019 120.079 199.876 126.088Z" fill="#1060A6"/>
</g>
<g id="&#60;Group&#62;_12">
<path id="&#60;Path&#62;_45" d="M159.457 155.179L179.554 133.094L174.589 129.3L154.493 151.385L159.457 155.179Z" fill="#0B528F"/>
<path id="&#60;Path&#62;_46" d="M172.121 164.858L192.218 142.773L187.254 138.979L167.157 161.064L172.121 164.858Z" fill="#0B528F"/>
</g>
<g id="&#60;Group&#62;_13">
<path id="&#60;Path&#62;_47" d="M252.084 104.782C251.758 83.9275 235.618 67.2481 216.06 67.5538C196.502 67.8594 180.891 85.0351 181.217 105.89C181.543 126.745 197.682 143.356 217.24 143.051C236.798 142.745 252.41 125.637 252.084 104.782Z" fill="#1060A6"/>
<path id="&#60;Path&#62;_48" d="M236.272 105.029C236.091 93.451 227.182 84.2439 216.323 84.4136C205.528 84.5823 196.848 94.0643 197.029 105.643C197.209 117.153 206.181 126.36 216.976 126.191C227.835 126.021 236.452 116.54 236.272 105.029Z" fill="#0B528F"/>
<path id="&#60;Path&#62;_49" opacity="0.1" d="M233.462 108.121C233.281 96.5426 224.372 87.3355 213.513 87.5052C208.814 87.5787 204.587 89.4056 201.267 92.3698C204.749 87.5745 210.164 84.5099 216.323 84.4136C227.182 84.2439 236.091 93.451 236.272 105.029C236.374 111.53 233.608 117.465 229.286 121.325C231.96 117.694 233.539 113.064 233.462 108.121Z" fill="black"/>
</g>
<g id="&#60;Group&#62;_14">
<path id="&#60;Path&#62;_50" d="M217.037 134.114C217.019 132.963 216.116 132.096 215.1 132.112C201.765 132.321 190.662 120.913 190.439 106.694C190.421 105.543 189.582 104.675 188.503 104.692C187.487 104.708 186.611 105.602 186.629 106.753C186.887 123.207 199.669 136.417 215.163 136.175C216.179 136.159 217.055 135.265 217.037 134.114Z" fill="white"/>
</g>
<path id="&#60;Path&#62;_51" d="M221.69 135.193C222.77 135.176 223.58 134.215 223.562 133.064C223.545 131.98 222.705 131.045 221.626 131.062C220.546 131.079 219.672 132.041 219.689 133.124C219.707 134.275 220.611 135.209 221.69 135.193Z" fill="white"/>
<g id="floppy-disk">
<g id="&#60;Group&#62;_15">
<g id="&#60;Group&#62;_16">
<path id="&#60;Compound Path&#62;" fill-rule="evenodd" clip-rule="evenodd" d="M57.6986 200.765L53.2803 204.967L54.2832 206.022L17.701 240.81L15.762 240.646C13.5528 242.747 11.5309 244.67 9.3217 246.77C8.94726 247.126 8.83168 247.38 8.82031 247.893C8.88877 249.764 8.92955 251.232 8.99964 253.03C9.02246 253.654 9.1641 253.878 9.62974 254.368L61.7461 309.171C62.4266 309.887 63.5239 309.991 64.1979 309.35L115.009 261.03C115.645 260.425 115.596 259.324 114.916 258.608L60.113 200.98C59.4325 200.264 58.3352 200.16 57.6986 200.765ZM63.3119 301.37L60.4662 304.076L58.2454 301.741L61.0911 299.035L63.3119 301.37Z" fill="#003666"/>
<path id="&#60;Path&#62;_52" d="M60.0203 201.857C59.3755 201.179 58.2782 201.075 57.6417 201.68L53.7101 205.419L53.2803 204.967L57.6986 200.765C58.3352 200.16 59.4325 200.264 60.113 200.98L114.916 258.608C115.417 259.135 115.585 259.837 115.352 260.417C115.285 260.122 115.11 259.787 114.859 259.523L60.0203 201.857Z" fill="#003666"/>
<path id="&#60;Path&#62;_53" d="M9.17366 248.489L9.35297 253.627C9.38554 253.811 9.34486 253.993 9.45069 254.179C9.16576 253.805 8.98668 253.616 8.99968 253.03L8.82035 247.893C8.83172 247.38 8.9473 247.127 9.32174 246.771L15.762 240.646L17.701 240.81L18.4873 240.063L18.9172 240.515L17.9811 241.405L16.0421 241.24L9.63924 247.329C9.2648 247.685 9.14922 247.939 9.17366 248.489Z" fill="#003666"/>
</g>
<path id="&#60;Path&#62;_54" d="M107.422 254.402L104.539 257.143L106.795 259.516L109.678 256.775L107.422 254.402Z" fill="#022D52"/>
<path id="&#60;Path&#62; copy" d="M61.2067 298.781L57.9866 301.843L60.5297 304.518L63.7499 301.455L61.2067 298.781Z" fill="#022D52"/>
<g id="&#60;Group&#62;_17">
<path id="&#60;Path&#62;_55" d="M75.2682 231.613L36.8138 268.182C36.0275 268.93 36.0715 270.251 36.8953 271.117L68.9532 304.828L110.216 265.588L78.158 231.877C77.3342 231.011 76.0545 230.865 75.2682 231.613Z" fill="#022D52"/>
<path id="&#60;Path&#62;_56" d="M75.2194 232.162L37.0645 268.446C36.2782 269.193 36.2864 270.477 37.1461 271.381L36.8953 271.117C36.0715 270.251 36.0275 268.93 36.8138 268.182L75.2682 231.613C76.0545 230.865 77.3342 231.011 78.158 231.877L110.216 265.588L109.916 265.873L78.1092 232.426C77.2495 231.522 75.9683 231.449 75.2194 232.162Z" fill="#022D52"/>
</g>
<g id="&#60;Group&#62;_18">
<path id="&#60;Path&#62;_57" d="M54.283 206.022L18.4871 240.063L34.8921 257.313C35.6801 258.142 36.9972 258.252 37.7835 257.505L70.7337 226.17C71.52 225.422 71.476 224.101 70.688 223.273L54.283 206.022Z" fill="#022D52"/>
<path id="&#60;Path&#62;_58" d="M37.7184 257.136L70.5188 225.944C71.3051 225.196 71.2611 223.875 70.4373 223.009L70.688 223.273C71.476 224.101 71.52 225.422 70.7337 226.17L37.7835 257.505C36.9972 258.252 35.6801 258.142 34.8921 257.313L18.4871 240.063L18.6369 239.92L34.7911 256.907C35.615 257.774 36.9321 257.884 37.7184 257.136Z" fill="#022D52"/>
</g>
<g id="&#60;Group&#62;_19">
<path id="&#60;Path&#62;_59" d="M81.2664 237.17C80.2276 236.078 78.4693 236.029 77.3835 237.061L42.1117 270.604C41.0259 271.636 40.9869 273.395 42.0256 274.487L63.0154 296.559C64.09 297.689 65.8125 297.701 66.8983 296.668L102.17 263.126C103.256 262.093 103.331 260.372 102.256 259.242L81.2664 237.17Z" fill="white"/>
<path id="&#60;Path&#62;_60" d="M82.6632 238.639L43.4225 275.956L43.709 276.257L82.9498 238.941L82.6632 238.639Z" fill="#178FBF"/>
<path id="&#60;Path&#62;_61" d="M86.2809 242.444L47.0402 279.76L47.2909 280.024L86.5317 242.707L86.2809 242.444Z" fill="#178FBF"/>
<path id="&#60;Path&#62;_62" d="M89.8271 246.172L50.5864 283.489L50.8729 283.79L90.1137 246.474L89.8271 246.172Z" fill="#178FBF"/>
<path id="&#60;Path&#62;_63" d="M93.409 249.939L54.1682 287.256L54.4548 287.557L93.6955 250.24L93.409 249.939Z" fill="#178FBF"/>
<path id="&#60;Path&#62;_64" d="M97.0267 253.743L57.7859 291.06L58.0725 291.361L97.3132 254.044L97.0267 253.743Z" fill="#178FBF"/>
<path id="&#60;Path&#62;_65" d="M100.609 257.51L61.3678 294.827L61.6186 295.09L100.859 257.773L100.609 257.51Z" fill="#178FBF"/>
</g>
<path id="&#60;Compound Path&#62;_2" fill-rule="evenodd" clip-rule="evenodd" d="M45.7167 212.16L18.0086 238.509L35.2016 256.589C36.0254 257.455 37.3067 257.528 38.0556 256.816L63.0303 233.065C63.7792 232.353 63.7336 231.106 62.9097 230.239L45.7167 212.16ZM31.7831 230.575L47.0419 246.62L39.7779 253.528L24.5191 237.483L31.7831 230.575Z" fill="#D9D9D9"/>
</g>
</g>
</g>
</g>
</svg>
